<?xml version="1.0" encoding="UTF-8" standalone="no"?>
<!-- Created with Inkscape (http://www.inkscape.org/) -->

<svg
   width="210mm"
   height="297mm"
   viewBox="0 0 210 297"
   version="1.1"
   id="svg5"
   xml:space="preserve"
   inkscape:version="1.2.2 (732a01da63, 2022-12-09)"
   sodipodi:docname="pointer-2.svg"
   xmlns:inkscape="http://www.inkscape.org/namespaces/inkscape"
   xmlns:sodipodi="http://sodipodi.sourceforge.net/DTD/sodipodi-0.dtd"
   xmlns="http://www.w3.org/2000/svg"
   xmlns:svg="http://www.w3.org/2000/svg"><sodipodi:namedview
     id="namedview7"
     pagecolor="#ffffff"
     bordercolor="#000000"
     borderopacity="0.25"
     inkscape:showpageshadow="2"
     inkscape:pageopacity="0.0"
     inkscape:pagecheckerboard="0"
     inkscape:deskcolor="#d1d1d1"
     inkscape:document-units="mm"
     showgrid="false"
     inkscape:zoom="1.4912879"
     inkscape:cx="583.38837"
     inkscape:cy="751.0287"
     inkscape:window-width="1920"
     inkscape:window-height="1017"
     inkscape:window-x="-8"
     inkscape:window-y="-8"
     inkscape:window-maximized="1"
     inkscape:current-layer="layer1" /><defs
     id="defs2" /><g
     inkscape:label="Camada 1"
     inkscape:groupmode="layer"
     id="layer1"><path
       d="m 43.152568,263.64142 c 9.645961,9.59072 88.378082,8.02231 124.510402,-28.31824 26.98774,-27.14325 27.08602,-70.76187 0.39122,-97.3035 C 141.35961,111.47804 97.742184,111.82712 70.754465,138.97021 34.622233,175.31068 33.50635,254.05047 43.152334,263.64119 Z M 96.976294,156.566 c 3.568726,-3.58915 7.810496,-6.50904 12.278766,-8.31164 2.90461,-1.12624 5.8196,1.32542 5.15677,4.23542 -1.1047,4.70046 0.252,10.0649 4.0661,13.8566 5.83249,5.799 15.67453,5.77073 21.47353,-0.06 2.45334,-2.46757 3.78764,-5.15588 4.22618,-8.28835 0.21539,-2.90852 3.79003,-4.26121 6.03361,-2.0306 14.58098,14.4976 14.42606,38.43212 -0.294,53.23754 -14.7206,14.80545 -38.6538,15.09788 -53.234956,0.60019 -14.580987,-14.49757 -14.426177,-38.4321 0.294,-53.23754 z"
       fill="#00a11b"
       class="fill-0072ff"
       id="path59"
       style="stroke-width:4.063;fill-opacity:1;fill:#00a11b;stroke:#ffffff;stroke-opacity:1;stroke-dasharray:none" /></g></svg>
