<svg viewBox="0 0 128 128" xml:space="preserve" xmlns="http://www.w3.org/2000/svg"><path d="M46.108 95.078a3.997 3.997 0 0 0-5.656 0l-.117-.117-21.914 14.617 14.617-21.914-.117-.117a4.005 4.005 0 0 0 0-5.656 3.997 3.997 0 0 0-5.656 0L.671 121.781a3.999 3.999 0 0 0 5.547 5.547l39.891-26.594a4.005 4.005 0 0 0-.001-5.656z" fill="#B0BEC5" class="fill-b0bec5"></path><path d="m71.999 8 48 48h-16l-32 32v16l-48-48h16l32-32V8m0-8a8.005 8.005 0 0 0-8 8v12.688L36.687 48H23.999a8.005 8.005 0 0 0-7.391 4.938 7.992 7.992 0 0 0 1.734 8.719l48 48a7.999 7.999 0 0 0 13.657-5.656V91.313L107.312 64H120a8.005 8.005 0 0 0 7.391-4.938 7.992 7.992 0 0 0-1.734-8.719l-48-48A8.01 8.01 0 0 0 71.999 0z" fill="#007009" class="fill-e53935"></path></svg>